<svg width="25" height="13" viewBox="0 0 25 13" fill="none" xmlns="http://www.w3.org/2000/svg">
<path fill-rule="evenodd" clip-rule="evenodd" d="M17.6774 0.629442C17.4975 0.671576 17.3678 0.730941 17.1733 0.859995C16.8206 1.09397 16.8537 1.0367 15.5712 3.62866C14.9379 4.90881 14.4135 5.96001 14.4061 5.96475C14.3986 5.9695 14.0358 5.25014 13.5999 4.36615C12.8043 2.75256 12.7045 2.56393 12.5676 2.41374C11.9312 1.71552 10.6948 1.79246 10.1909 2.56156C10.1441 2.63313 9.67085 3.57278 9.13925 4.64972L8.17279 6.60772L7.49987 5.24575C6.71915 3.66577 6.62146 3.51698 6.24476 3.33498L6.1563 3.29221V2.62455C6.1563 2.03795 6.15176 1.95514 6.11871 1.94231C6.09799 1.93421 5.9482 1.92766 5.7858 1.92766H5.49047V2.5421V3.1566H5.38728C4.98642 3.1566 4.46102 3.46843 4.22366 3.84736C4.14621 3.97104 0.187714 11.991 0.187714 12.0242C0.187714 12.04 4.33608 12.0482 12.3984 12.0482C20.5077 12.0482 24.609 12.0401 24.609 12.0241C24.609 11.9835 19.3626 1.36498 19.2848 1.2482C18.9597 0.760031 18.2637 0.492156 17.6774 0.629442Z" fill="#FBFBFB"/>
</svg>
